<?xml version="1.0" encoding="UTF-8"?>
<!-- Generator: Adobe Illustrator 18.1.1, SVG Export Plug-In . SVG Version: 6.00 Build 0)  -->
<!DOCTYPE svg PUBLIC "-//W3C//DTD SVG 1.1//EN" "http://www.w3.org/Graphics/SVG/1.1/DTD/svg11.dtd">
<svg version="1.1" id="Layer_1" xmlns="http://www.w3.org/2000/svg" xmlns:xlink="http://www.w3.org/1999/xlink" x="0px" y="0px" width="400px" height="400px" viewBox="0 0 400 400" enable-background="new 0 0 400 400" xml:space="preserve">
<g>
	<g>
		<polygon fill-rule="evenodd" clip-rule="evenodd" fill="#FF9900" points="54.3,270 31.3,261.7 31.3,227.9 54.3,235.8   "/>
		<polygon fill-rule="evenodd" clip-rule="evenodd" fill="#FF9900" points="58.6,270 81.6,261.7 81.6,227.9 58.6,235.8   "/>
		<polygon fill-rule="evenodd" clip-rule="evenodd" fill="#FF9900" points="33.7,225.4 57,218.8 78.6,225.8 57,233.1   "/>
	</g>
	<g>
		<polygon fill-rule="evenodd" clip-rule="evenodd" fill="#FF9900" points="26.9,222.8 3.8,214.5 3.8,180.7 26.9,188.5   "/>
		<polygon fill-rule="evenodd" clip-rule="evenodd" fill="#FF9900" points="31.1,222.8 54.2,214.5 54.2,180.7 31.1,188.5   "/>
		<polygon fill-rule="evenodd" clip-rule="evenodd" fill="#FF9900" points="6.2,178.2 29.5,171.6 51.2,178.6 29.5,185.9   "/>
	</g>
	<g>
		<polygon fill-rule="evenodd" clip-rule="evenodd" fill="#FF9900" points="80.7,222.8 57.6,214.5 57.6,180.7 80.7,188.5   "/>
		<polygon fill-rule="evenodd" clip-rule="evenodd" fill="#FF9900" points="84.9,222.8 108,214.5 108,180.7 84.9,188.5   "/>
		<polygon fill-rule="evenodd" clip-rule="evenodd" fill="#FF9900" points="60,178.2 83.4,171.6 105,178.6 83.4,185.9   "/>
	</g>
	<g>
		<polygon fill-rule="evenodd" clip-rule="evenodd" fill="#FF9900" points="108.2,175.5 85.1,167.3 85.1,133.5 108.2,141.3   "/>
		<polygon fill-rule="evenodd" clip-rule="evenodd" fill="#FF9900" points="112.4,175.5 135.5,167.3 135.5,133.5 112.4,141.3   "/>
		<polygon fill-rule="evenodd" clip-rule="evenodd" fill="#FF9900" points="87.5,130.9 110.8,124.4 132.5,131.3 110.8,138.7   "/>
	</g>
	<g>
		<polygon fill-rule="evenodd" clip-rule="evenodd" fill="#FF9900" points="162,175.5 138.9,167.3 138.9,133.5 162,141.3   "/>
		<polygon fill-rule="evenodd" clip-rule="evenodd" fill="#FF9900" points="166.2,175.5 189.3,167.3 189.3,133.5 166.2,141.3   "/>
		<polygon fill-rule="evenodd" clip-rule="evenodd" fill="#FF9900" points="141.3,130.9 164.6,124.4 186.3,131.3 164.6,138.7   "/>
	</g>
	<g>
		<path stroke="#000000" d="M150.3,248l-7.7,26.9h-3.4l-6-20l-5.5,20h-3.4l-8.1-26.9h4.2l5.9,20.1l5.6-20.1h3.1l6.1,20.1l6-20.1    H150.3z"/>
		<path stroke="#000000" d="M171.7,266.9l3.9,0.8c-0.7,2.3-2.1,4.2-4.1,5.7c-2.1,1.5-4.5,2.3-7.3,2.3c-3.7,0-6.6-1.3-8.9-3.9    c-2.3-2.6-3.4-6-3.4-10.2c0-4.3,1.2-7.8,3.5-10.4c2.4-2.6,5.3-4,8.9-4c3.5,0,6.3,1.2,8.5,3.6c2.1,2.4,3.2,6.1,3.3,10.9h-19.5    c0,4.1,0.9,6.8,2.6,8.2c1.7,1.4,3.5,2.1,5.4,2.1C167.9,272.2,170.3,270.4,171.7,266.9z M171.5,258.7c0-1.5-0.3-2.8-0.7-4    c-0.5-1.2-1.2-2.2-2.3-3c-1.1-0.8-2.4-1.2-4-1.2c-2.1,0-3.8,0.7-5.3,2.2c-1.4,1.5-2.3,3.5-2.4,6H171.5z"/>
		<path stroke="#000000" d="M183.6,274.9h-2v-36.3h4.2v13.9c1.9-3.5,4.6-5.2,7.9-5.2c3.1,0,5.7,1.2,7.7,3.7c2.1,2.4,3.1,6,3.1,10.6    c0,4-1,7.4-3.1,10.1c-2,2.7-4.7,4.1-8,4.1c-3.7,0-6.5-1.7-8.4-5.2L183.6,274.9z M185.7,264.3c0.2,2.8,1,4.8,2.5,6    c1.5,1.2,3.1,1.9,4.8,1.9c2.1,0,3.8-0.9,5.2-2.8c1.3-1.8,2-4.4,2-7.6c0-3.5-0.6-6.2-1.9-8.2c-1.3-2-3-3-5.2-3    c-1.8,0-3.3,0.7-4.8,2.1c-1.4,1.4-2.2,3.2-2.5,5.5V264.3z"/>
		<path stroke="#000000" d="M215.2,267.9l4-0.8c0.9,3.4,3.7,5.1,8.4,5.1c1.7,0,3.2-0.4,4.4-1.2c1.2-0.8,1.8-1.9,1.8-3.3    c0-2.1-1.5-3.4-4.6-4l-5.7-1.1c-2.2-0.4-4-1.3-5.3-2.5c-1.3-1.2-2-2.9-2-4.9c0-2.3,0.9-4.1,2.7-5.7c1.8-1.5,4.2-2.3,7.2-2.3    c5.8,0,9.4,2.3,10.8,6.8l-3.8,0.8c-1.1-2.8-3.4-4.2-6.8-4.2c-1.7,0-3.1,0.3-4.2,1c-1.1,0.7-1.6,1.7-1.6,2.9c0,2,1.4,3.2,4.2,3.7    l5.2,1c5.5,1,8.2,3.7,8.2,8c0,2.5-1,4.5-3.1,6c-2,1.5-4.8,2.3-8.2,2.3C220.7,275.6,216.7,273.1,215.2,267.9z"/>
		<path stroke="#000000" d="M260.6,266.9l3.9,0.8c-0.7,2.3-2.1,4.2-4.2,5.7c-2.1,1.5-4.5,2.3-7.3,2.3c-3.7,0-6.6-1.3-8.9-3.9    c-2.3-2.6-3.4-6-3.4-10.2c0-4.3,1.2-7.8,3.5-10.4c2.4-2.6,5.3-4,8.9-4c3.5,0,6.3,1.2,8.5,3.6c2.1,2.4,3.2,6.1,3.3,10.9h-19.5    c0,4.1,0.9,6.8,2.6,8.2c1.7,1.4,3.5,2.1,5.4,2.1C256.8,272.2,259.2,270.4,260.6,266.9z M260.3,258.7c0-1.5-0.3-2.8-0.7-4    c-0.5-1.2-1.2-2.2-2.3-3c-1.1-0.8-2.4-1.2-4-1.2c-2.1,0-3.8,0.7-5.3,2.2c-1.4,1.5-2.3,3.5-2.4,6H260.3z"/>
		<path stroke="#000000" d="M273.6,274.9h-4.2V248h3.7v6.3c1.3-2.9,2.6-4.8,3.9-5.7c1.3-0.9,2.6-1.3,4-1.3c0.4,0,1,0,1.7,0.1v4h-0.8    c-2.3,0-4.2,0.9-5.7,2.6c-1.5,1.7-2.3,4-2.4,6.8V274.9z"/>
		<path stroke="#000000" d="M308.7,248l-9.3,26.9h-4.3l-9.6-26.9h4.6l7.5,21.9L305,248H308.7z"/>
		<path stroke="#000000" d="M316.5,238.6v4.6h-4.5v-4.6H316.5z M316.5,248v26.9h-4.2V248H316.5z"/>
		<path stroke="#000000" d="M338.4,265.5l3.8,0.7c-0.5,3-1.7,5.3-3.5,7c-1.8,1.7-4.1,2.5-6.8,2.5c-3.7,0-6.5-1.4-8.5-4.1    c-1.9-2.7-2.9-6.1-2.9-10c0-4.1,1-7.5,3.1-10.2c2-2.7,4.8-4.1,8.4-4.1c2.9,0,5.3,0.9,7,2.6c1.8,1.8,2.9,4,3.3,6.8l-3.8,0.7    c-0.7-4.4-2.9-6.7-6.4-6.7c-2.3,0-4.1,1-5.3,2.9c-1.2,2-1.9,4.5-1.9,7.6c0,3.4,0.6,6.1,1.8,8c1.2,1.9,3,2.9,5.2,2.9    C335.2,272.2,337.4,269.9,338.4,265.5z"/>
		<path stroke="#000000" d="M365.8,266.9l3.9,0.8c-0.7,2.3-2.1,4.2-4.2,5.7c-2.1,1.5-4.5,2.3-7.3,2.3c-3.7,0-6.6-1.3-8.9-3.9    c-2.3-2.6-3.4-6-3.4-10.2c0-4.3,1.2-7.8,3.5-10.4c2.4-2.6,5.3-4,8.9-4c3.5,0,6.3,1.2,8.5,3.6c2.1,2.4,3.2,6.1,3.3,10.9h-19.5    c0,4.1,0.9,6.8,2.6,8.2c1.7,1.4,3.5,2.1,5.4,2.1C362,272.2,364.4,270.4,365.8,266.9z M365.5,258.7c0-1.5-0.3-2.8-0.7-4    c-0.5-1.2-1.2-2.2-2.3-3c-1.1-0.8-2.4-1.2-4-1.2c-2.1,0-3.8,0.7-5.3,2.2c-1.4,1.5-2.3,3.5-2.4,6H365.5z"/>
		<path stroke="#000000" d="M372.5,267.9l4-0.8c0.9,3.4,3.7,5.1,8.4,5.1c1.7,0,3.2-0.4,4.4-1.2c1.2-0.8,1.8-1.9,1.8-3.3    c0-2.1-1.5-3.4-4.6-4l-5.7-1.1c-2.2-0.4-4-1.3-5.3-2.5c-1.3-1.2-2-2.9-2-4.9c0-2.3,0.9-4.1,2.7-5.7c1.8-1.5,4.2-2.3,7.2-2.3    c5.8,0,9.4,2.3,10.8,6.8l-3.8,0.8c-1.1-2.8-3.4-4.2-6.8-4.2c-1.7,0-3.1,0.3-4.2,1c-1.1,0.7-1.6,1.7-1.6,2.9c0,2,1.4,3.2,4.2,3.7    l5.2,1c5.5,1,8.2,3.7,8.2,8c0,2.5-1,4.5-3.1,6c-2,1.5-4.8,2.3-8.2,2.3C378,275.6,374,273.1,372.5,267.9z"/>
	</g>
	<g>
		<g>
			<path fill-rule="evenodd" clip-rule="evenodd" d="M278,190.5V184c0-1,0.7-1.6,1.6-1.6l29,0c0.9,0,1.7,0.7,1.7,1.6l0,5.5     c0,0.9-0.8,2.1-2.2,4.1l-15,21.4c5.6-0.1,11.5,0.7,16.5,3.5c1.1,0.6,1.4,1.6,1.5,2.5v6.9c0,1-1,2.1-2.1,1.5     c-8.9-4.7-20.8-5.2-30.6,0.1c-1,0.5-2.1-0.5-2.1-1.5v-6.6c0-1,0-2.8,1.1-4.4l17.4-24.9l-15.1,0C278.7,192.1,278,191.4,278,190.5z     "/>
			<path fill-rule="evenodd" clip-rule="evenodd" d="M174.3,230.8h-8.8c-0.8-0.1-1.5-0.7-1.6-1.5l0-45.2c0-0.9,0.8-1.6,1.7-1.6     l8.2,0c0.9,0,1.5,0.7,1.6,1.5v5.9h0.2c2.1-5.7,6.2-8.4,11.6-8.4c5.5,0,9,2.7,11.4,8.4c2.1-5.7,7-8.4,12.2-8.4     c3.7,0,7.7,1.5,10.2,5c2.8,3.8,2.2,9.3,2.2,14.2l0,28.6c0,0.9-0.8,1.6-1.7,1.6h-8.8c-0.9-0.1-1.6-0.8-1.6-1.6l0-24     c0-1.9,0.2-6.7-0.2-8.5c-0.7-3-2.6-3.9-5.2-3.9c-2.1,0-4.4,1.4-5.3,3.7c-0.9,2.3-0.8,6.1-0.8,8.7v24c0,0.9-0.8,1.6-1.7,1.6h-8.8     c-0.9-0.1-1.6-0.8-1.6-1.6l0-24c0-5,0.8-12.5-5.4-12.5c-6.3,0-6.1,7.2-6.1,12.5l0,24C176,230.1,175.2,230.8,174.3,230.8z"/>
			<path fill-rule="evenodd" clip-rule="evenodd" d="M331.6,181.5c13,0,20,11.2,20,25.5c0,13.8-7.8,24.8-20,24.8     c-12.7,0-19.7-11.2-19.7-25.2C311.9,192.5,318.9,181.5,331.6,181.5z M331.6,191.9c-6.5,0-6.9,8.9-6.9,14.4     c0,5.5-0.1,16.2,6.8,16.2c6.8,0,7.1-8.4,7.1-14.2c0-3.8-0.2-8.4-1.3-12C336.4,193.2,334.4,191.9,331.6,191.9z"/>
			<path fill-rule="evenodd" clip-rule="evenodd" d="M370.3,230.8h-8.8c-0.9-0.1-1.6-0.8-1.6-1.6l0-45.3c0.1-0.8,0.8-1.5,1.7-1.5     l8.2,0c0.8,0,1.4,0.6,1.6,1.3v6.9h0.2c2.5-6.2,5.9-9.1,12-9.1c3.9,0,7.8,1.4,10.3,5.3c2.3,3.6,2.3,9.7,2.3,14.1v28.5     c-0.1,0.8-0.8,1.4-1.7,1.4h-8.8c-0.8-0.1-1.5-0.7-1.6-1.4v-24.6c0-5,0.6-12.2-5.5-12.2c-2.1,0-4.1,1.4-5.1,3.6     c-1.2,2.8-1.4,5.5-1.4,8.6v24.4C372,230.1,371.3,230.8,370.3,230.8z"/>
			<path fill-rule="evenodd" clip-rule="evenodd" d="M255.9,209.2c0,3.4,0.1,6.3-1.6,9.4c-1.4,2.5-3.6,4-6.1,4     c-3.4,0-5.4-2.6-5.4-6.4c0-7.5,6.7-8.9,13.1-8.9V209.2z M264.8,230.7c-0.6,0.5-1.4,0.6-2.1,0.2c-2.9-2.4-3.5-3.6-5.1-5.9     c-4.8,4.9-8.3,6.4-14.5,6.4c-7.4,0-13.2-4.6-13.2-13.7c0-7.2,3.9-12,9.4-14.4c4.8-2.1,11.5-2.5,16.6-3.1v-1.1     c0-2.1,0.2-4.6-1.1-6.4c-1.1-1.6-3.1-2.3-4.9-2.3c-3.4,0-6.4,1.7-7.1,5.3c-0.2,0.8-0.7,1.6-1.5,1.6l-8.5-0.9     c-0.7-0.2-1.5-0.7-1.3-1.8c2-10.4,11.3-13.5,19.7-13.5c4.3,0,9.9,1.1,13.3,4.4c4.3,4,3.9,9.4,3.9,15.2v13.7     c0,4.1,1.7,5.9,3.3,8.2c0.6,0.8,0.7,1.8,0,2.3C269.8,226.4,266.6,229.2,264.8,230.7L264.8,230.7z"/>
			<path fill-rule="evenodd" clip-rule="evenodd" d="M141.3,209.2c0,3.4,0.1,6.3-1.6,9.4c-1.4,2.5-3.6,4-6.1,4     c-3.4,0-5.4-2.6-5.4-6.4c0-7.5,6.7-8.9,13.1-8.9V209.2z M150.2,230.7c-0.6,0.5-1.4,0.6-2.1,0.2c-2.9-2.4-3.5-3.6-5.1-5.9     c-4.8,4.9-8.3,6.4-14.5,6.4c-7.4,0-13.2-4.6-13.2-13.7c0-7.2,3.9-12,9.4-14.4c4.8-2.1,11.5-2.5,16.6-3.1v-1.1     c0-2.1,0.2-4.6-1.1-6.4c-1.1-1.6-3.1-2.3-4.9-2.3c-3.4,0-6.4,1.7-7.1,5.3c-0.2,0.8-0.7,1.6-1.5,1.6l-8.5-0.9     c-0.7-0.2-1.5-0.7-1.3-1.8c2-10.4,11.3-13.5,19.7-13.5c4.3,0,9.9,1.1,13.3,4.4c4.3,4,3.9,9.4,3.9,15.2v13.7     c0,4.1,1.7,5.9,3.3,8.2c0.6,0.8,0.7,1.8,0,2.3C155.2,226.4,152,229.2,150.2,230.7L150.2,230.7z"/>
		</g>
	</g>
</g>
</svg>